<svg xmlns="http://www.w3.org/2000/svg" viewBox="0 0 258.72057 100.25076"><g id="Layer_2" data-name="Layer 2"><g id="Layer_1-2" data-name="Layer 1"><path d="M195.94505,36.41976a4.804,4.804,0,1,0,4.8077,4.7949,4.80745,4.80745,0,0,0-4.8077-4.7949" style="fill:#e4002b"/><path d="M132.45295,26.00376h-32.4405s-1.5937-.0948-1.5937-1.4668V6.60676s0-.6197-.4717-.3408c-.209.1181-8.5986,5.3667-8.5986,5.3667a.43976.43976,0,0,0-.1748.3173v39.7022s-.0694,4.4888,3.7939,4.4888h4.3262v-.0122l34.4824.0122s4.9453.0839,4.9805-4.8423V29.52816s-.1114-3.5684-4.3037-3.5244m-4.8272,22.2001a1.59884,1.59884,0,0,1-1.5957,1.605h-25.9863a1.60136,1.60136,0,0,1-1.6016-1.605v-14.374a1.60178,1.60178,0,0,1,1.6016-1.604h25.9863a1.59926,1.59926,0,0,1,1.5957,1.604Z" style="fill:#e4002b"/><path d="M208.05445,56.34066h32.4424s1.5957.0898,1.5957,1.46868V75.73666s0,.6191.4727.3398c.2031-.12112,8.5937-5.3589,8.5937-5.3589a.47366.47366,0,0,0,.1777-.3281V30.68726s.0684-4.4887-3.7919-4.4887h-4.3291v.0112l-34.4825-.0112s-4.9433-.0801-4.9834,4.8432v21.774s.1143,3.562,4.3047,3.5249m4.8291-22.2051a1.60182,1.60182,0,0,1,1.6016-1.603h25.9805a1.603,1.603,0,0,1,1.6044,1.603V48.51634a1.60194,1.60194,0,0,1-1.6044,1.59922h-25.9805a1.60076,1.60076,0,0,1-1.6016-1.59922Z" style="fill:#e4002b"/><path d="M183.31525,26.00376h-32.4414s-1.5977-.0948-1.5977-1.4668V6.60676s0-.6197-.4697-.3408c-.21.1181-8.5957,5.3667-8.5957,5.3667a.43852.43852,0,0,0-.1787.3173v39.7022s-.0684,4.4888,3.791,4.4888h4.332v-.0122l34.4824.0122s4.9424.0839,4.9844-4.8423V29.52816s-.1172-3.5684-4.3066-3.5244m-4.8301,22.2001a1.59845,1.59845,0,0,1-1.5996,1.605h-25.9834a1.60157,1.60157,0,0,1-1.6026-1.605v-14.374a1.602,1.602,0,0,1,1.6026-1.604h25.9834a1.59887,1.59887,0,0,1,1.5996,1.604Z" style="fill:#e4002b"/><path d="M143.33865,81.93686l-.4141,1.4653c1.1309.4077,1.5079.6597,1.709.9258l-4.081,15.3891.5429.4546c1.4707-.3237,3.4873-.6128,5.6358-.8667l.5-1.7451-2.499.105,4.1894-15.728Z" style="fill:#d6d1c4"/><path d="M139.31615,81.93686h-5.58l-.4219,1.4653c1.1406.4077,1.5098.6597,1.706.9258l-1.1328,4.2949c-.2265.5039-1.7422.8809-3.1162.959h-9.6758l2.0694-7.645h-6.1992l-.4219,1.4653a4.25514,4.25514,0,0,1,1.9199.9258l-3.7607,13.9189c-.1065.3369-.3663.3111-1.752.4512l-.3086,1.2539c1.2432-.0498,2.5635-.0752,3.9287-.0752,1.3428,0,2.6426.0254,3.876.0664l.3525-1.2451c-1.3906-.1401-2.1045-.1401-2.0449-.4512l1.7061-6.292-.0137.0733c.125-.5035,1.5371-.8614,2.8887-.9634h9.9023l-2.2959,8.6523.5459.4546c1.4688-.3237,3.4873-.6128,5.6348-.8667l.5039-1.7451-2.4971.105Z" style="fill:#d6d1c4"/><path d="M199.62675,83.57646l.6592-1.6348h-8.3672c-.4004,1.7579-4.0303,5.8428-8.8985,7.712l2.0918-7.71732H178.908l-.4267,1.46532c1.2715.40768,1.6933.6606,1.9179.9258l-3.75,13.91888c-.1142.33842-.373.31112-1.7587.45122l-.3008,1.2539c1.2422-.0498,2.5547-.0737,3.916-.0737,1.3467,0,2.6475.0239,3.8779.0649l.3594-1.2451c-1.3916-.1401-2.1006-.1401-2.0459-.45122l2.209-8.16158c2.0097,3.2778,9.3662,9.9258,15.0019,10.0815l.7002-2.89992c-4.209-.353-9.9746-4.39788-12.6367-7.16008,4.5332-3.2817,10.1172-6.0298,13.6553-6.5298" style="fill:#d6d1c4"/><path d="M251.39435,81.93686h-5.5879l-.4112,1.4653c1.1299.4077,1.4991.6597,1.709.9258l-2.8623,10.7758c-.0635.1612-.1738.4161-.3398.4371a.422.422,0,0,1-.3428-.1602l-10.3838-13.4438h-6.1953l-.4326,1.4653c1.2764.4077,1.6963.6597,1.9228.9258l-3.7607,13.9189c-.1065.3369-.3643.3111-1.752.4512l-.3027,1.2539c1.2402-.0498,2.5527-.0752,3.917-.0752,1.3516,0,2.6475.0254,3.8809.0664l.3564-1.2451c-1.3906-.1401-2.1103-.1401-2.042-.4512l3.6016-13.3262a12.11474,12.11474,0,0,1,2.6631,2.3374l8.4072,10.879-.4238,1.58.5439.4546c1.4727-.3237,3.4824-.6128,5.6406-.8667l.4971-1.7451-2.4971.105Z" style="fill:#d6d1c4"/><path d="M88.036,93.97976l1.2041-5.268c1.0674-4.7061,5.8418-7.1612,15.1836-7.1612,4.1425,0,7.4726.7144,8.8115,1.5645-.1367.708-.7471,2.8589-.8438,3.1777a8.933,8.933,0,0,1-4.2685-.0049c-.0362,0,.0908-.457.1562-.9912-1.4043-.8828-4.2353-1.2827-8.1113-1.2827-4.4678,0-6.6152,1.9546-7.1836,4.4009L91.83185,93.14c-.9932,4.3769,6.3369,4.4306,9.875,4.4306a18.26807,18.26807,0,0,0,9.8154-3.4467l.5674.248-1.0283,3.5401c-3.1387,2.0927-7.7471,2.3388-11.9825,2.3388-8.3408,0-11.9101-2.2998-11.0429-6.271" style="fill:#d6d1c4"/><path d="M149.93045,93.97976l1.208-5.268c1.0654-4.7061,5.8398-7.1612,15.1856-7.1612,4.1376,0,7.4716.7144,8.8076,1.5645-.1367.708-.75,2.8589-.8457,3.1777a8.93733,8.93733,0,0,1-4.2686-.0049c-.0342,0,.0918-.457.1631-.9912-1.4043-.8828-4.2422-1.2827-8.123-1.2827-4.4659,0-6.6075,1.9546-7.1778,4.4009l-1.1553,4.7251c-.9873,4.3769,6.3399,4.4306,9.8799,4.4306a18.23818,18.23818,0,0,0,9.8135-3.4467l.5703.248-1.0342,3.5401c-3.1328,2.0927-7.7412,2.3388-11.9795,2.3388-8.3408,0-11.914-2.2998-11.0439-6.271" style="fill:#d6d1c4"/><path d="M220.535,95.84546c-.6934,1.275-2.1172,1.4332-3.7842,1.6348-1.8887.2412-9.1367.4473-10.8672.4854l1.7334-6.4361c.3369-.437,1.7315-.7441,3.0977-.834h2.9961c1.5732.064,3.3095.438,3.457.9717h.8076l.8731-3.31392h-.8028c-.2549.71432-2.1074.92722-3.6953.97122h-6.1338l1.4756-5.43322c2.874-.02488,6.8926-.04288,8.1192.05422,2.5332.2071,2.9316.4009,3.4707,1.38378.0488.11532.1767.45022.1767.45022l1.335.0049-1.335-3.84812h-17.4355l-.4307,1.46532a4.16927,4.16927,0,0,1,1.917.9258l-3.7549,13.91888c-.1094.33792-.3672.31112-1.751.45122l-.3095,1.2539c1.2451-.0498,2.5986-.126,3.9658-.126.4346,0,.874-.0058,1.3096-.01712l-.0049.01712h15.8818l1.2442-4.6889-1.1026.0097Z" style="fill:#d6d1c4"/><path d="M37.80935.00076a38.04615,38.04615,0,1,0,38.2871,37.8067A38.05167,38.05167,0,0,0,37.80935.00076m.4707,74.7188a36.67527,36.67527,0,1,1,36.4434-36.9038,36.67883,36.67883,0,0,1-36.4434,36.9038" style="fill:#d6d1c4"/><path d="M17.67845,14.47834a.54552.54552,0,0,0-.4589.71192,15.37184,15.37184,0,0,1,.7207,2.1333c.1093.5527.1757,1.0747.5214,1.1841a7.21277,7.21277,0,0,1,1.9629,1.0185c.4512.418,1.9512,2.1953,2.1954,2.4951a2.18256,2.18256,0,0,1,.3027.4414l.0224.47368s-.79.88912-.7705,1.10692c.0225.2134.4629.5073.7618.6592.2949.15088.6757.521,1.2089.1338a7.92815,7.92815,0,0,1,.6934-.42192c-.0391-.11378-.0713-.21918-.1191-.36478-.1807.1387-.3487.2696-.5567.4249a.74762.74762,0,0,1-.0176-.93512c.2676.06882.5108.13822.7588.20212.1826.3428.2237.42288.1065.5777.5371-.2896,1.1924-.61282,1.8271-.9209a6.816,6.816,0,0,1,2.4414-.7881,8.02383,8.02383,0,0,0,1.4707.1465,2.49233,2.49233,0,0,1,1.7793.34468c.544.39312.6885.64312,1.0381.584.3555-.061.8281-.146.6778-.47268a11.98511,11.98511,0,0,1-.6065-1.96332,2.23268,2.23268,0,0,0-.1035-.43308c-.0469.0292-.0918.05608-.1397.0869a.68371.68371,0,0,1-.0683-.7779,3.93654,3.93654,0,0,0-.127-.8901.8346.8346,0,0,0-1.1826-.46782,3.18311,3.18311,0,0,0-1.1846,1.25492,7.82556,7.82556,0,0,1-.5449.915,4.45128,4.45128,0,0,1-.2929-1.228,12.439,12.439,0,0,1,.3574-2.1147c.1904-.8023.4941-1.7471.5234-2.065a.73564.73564,0,0,0-.3017-.6533,7.94546,7.94546,0,0,0-1.9405-1.46c.1436.20608.167.5123.3731.7134.1484-.0102.2763-.0205.3838-.0234.2138.2109.1464.3984-.0039.6113-.2354-.0063-.4893-.018-.7491-.0293a1.78347,1.78347,0,0,1-.4336-1.126,1.345,1.345,0,0,0-.414.587c-.1035.28708-.377.86908-.2246,1.2382a13.19264,13.19264,0,0,1,.3496,2.6387,23.12123,23.12123,0,0,1,.0058,2.7061c-.1054.3032-.1484.55708-.5683.4482-.4229-.1113-.6817-.07812-.7754-1.0098v-.00832c-.1016.03812-.2061.07722-.3164.11582a.72562.72562,0,0,1-.1836-.8487c.1279.10888.2461.2061.416.3487.0156-.0196.0244-.0386.0391-.0606a19.38113,19.38113,0,0,0-.4532-2.90722c-.1748-.71778-.3955-1.56488-.5586-2.18988a.69626.69626,0,0,0-.1328.666h.0166a.06443.06443,0,0,0,.0088.018c.1397.0401.2735.0967.2012.4297-.0967-.209-.1504-.31982-.2012-.4297a.12187.12187,0,0,1-.0254-.0068v-.0112c-.2236-.0103-.4511-.0259-.6494-.0327-.165-.4571.2588-.5196.3545-.7212.1621-.438-.2578-.773-.2031-1.1714l-.0156-.0059c-.3008-.02492-.4454-.2871-.6192-.46192a2.44638,2.44638,0,0,0-.9873-.46478,7.74587,7.74587,0,0,0-1.25-.28622c-.2021-.01168-.2793.07232-.3017.21392a.64854.64854,0,0,1,.1367.74608c-.0371-.04488-.0664-.086-.0977-.126.0195.23.0352.50682.0488.771.1114-.167.2334-.35008.3936-.59278.2637.4575.2773.7046-.0205.94578-.1397-.06588-.2637-.12888-.3633-.17968.002.0459.0039.09968.0068.1465.0235.47218.0049.5923.0264.7451.0244.1573.1016.3082.4473.5093a2.42292,2.42292,0,0,1,.5117.86278c.168.34382.4697,1.023.748,1.58792a10.31638,10.31638,0,0,1,.7188,2.1812c.0557.4311.1543.9541.0615.9438a2.92221,2.92221,0,0,1-1.3398-1.00492c-.1455-.22608-.3203-.52188-.502-.84278a1.1909,1.1909,0,0,1-.1279.045c-.2861-.3614-.6328-.63722-.5664-1.2071.039.0298.0693.04588.1015.06888-.0859-.16068-.1679-.31688-.2392-.459-.3604-.71578-1.0352-1.94968-1.2129-2.27878-.1846-.32622-.2773-.59422-.4629-.61522,0,0-1.9717-.17088-2.3057-.125m15.9864,9.15722c-.0606-.189-.1016-.3233-.1621-.51422.3222.10792.3427.24712.1621.51422m-1.0215-2.6983v-.0166c.0039-.00632.0117-.0131.0137-.0195,0-.21682-.002-.4307-.002-.65282.2686.00392.2529.166.2149.26712a1.7805,1.7805,0,0,1-.2129.3857.09836.09836,0,0,1,.0039.0361h-.0176c.0137.14508.0254.2959.0449.49808-.1758.00292-.3203.00882-.5254.01512-.0058-.187-.0088-.34812-.0117-.53612.2012.00632.3486.01612.4922.02292m-1.2051-.4296a.51511.51511,0,0,0,.0567.0078c0,.042-.004.0898-.0069.1318a.2525.2525,0,0,0-.0517-.00392c0-.04388.0019-.08588.0019-.13568m-1.1406.4716c.0156,0,.0342.0039.0488.0039-.001.0904-.0068.18118-.0107.2691H30.286c.0019-.0908.0078-.1831.0117-.273m-.1504-6.2841.0127.05318-.0459-.00688Zm-.0918,1.913.0195.05618h-.0439Zm-.2373,6.01518a.62584.62584,0,0,1-.0459-.10108.15123.15123,0,0,1,.0557-.0176c.0205.0366.0263.0699.0459.0996a.16167.16167,0,0,1-.0557.01908m-.1943-5c.2978.18212.2978.18212.1982.65722-.2842-.1685-.252-.3999-.1982-.65722m-.4268,2.75732a.24915.24915,0,0,0,.0537.0039c.0059.209.0098.4219.0137.63178h-.0996c.0117-.208.0215-.42478.0322-.63568m-.4404-3c.248.4668-.0811.74368-.0332,1.0508.0488.29588.0937.5957.1455.92188-.1143-.02488-.1934-.02978-.1992-.04978a5.63035,5.63035,0,0,1,.0869-1.9229m-.4737-.5635c.0098.0171.0245.0391.0205.05518-.0019.01612-.0234.02592-.0371.04592l.0166-.1011m-1.5449,5.833a.62505.62505,0,0,1-.0312.0869.72529.72529,0,0,1-.0166-.07172.14556.14556,0,0,1,.0478-.01518m-1.3994-4.331-.0215.0464-.0156-.0493Zm-.1953,1.11418a.843.843,0,0,1,.0224.377c-.0078.04782-.1083.08982-.2529.20122-.0566-.2979-.0898-.4649-.1172-.62022.1709-.14988.293-.08978.3477.042m-.4258-1.17088-.0293.063-.0215-.0659Zm-.4199.89988c.1299.149.2246.20412.2373.27692a1.12872,1.12872,0,0,0,.1767.6553c.1563.1797-.0058.3559-.2646.5229a6.614,6.614,0,0,1-.1494-1.45512m-2.5488.42a.232.232,0,0,1,.1894.09322.342.342,0,0,1-.1406.501.35163.35163,0,0,1-.2149-.4673.24348.24348,0,0,1,.1661-.12692m-.3448-1.01708c.2481.1782.2325.3603.0576.6152a.41872.41872,0,0,1-.0576-.6152m-2.2715-.461c-.0087-.0708-.0498-.14992-.0263-.20992.0195-.05368.1094-.07618.1855-.13188.0352.0957.0977.1968.0791.2207a.95258.95258,0,0,1-.2383.1211m.7081-.1386.0517.03368-.0615.017Zm-1.1485-2.7974c.1113.08108.2334.165.3779.26508.0772-.07908.1651-.17278.2569-.26068l-.0069-.0151.0108.0107c.4394-.1728.4892-.1338.418.45408-.1114-.12688-.1944-.21188-.2715-.30078l.0107.0181-.0107-.00932c-.0069.15482-.0166.31012-.0225.48292-.1553.0523-.2988.1074-.4775.1738a2.52849,2.52849,0,0,1,.0527.5196,1.44029,1.44029,0,0,1-.2129.38768c-.376-.38188-.376-.38188-.0097-.98588.0917-.2749-.4317-.3862-.1153-.7402m-.7783,1.26708c.0039-.03418.1182-.04788.1826-.06978.0186.0717.0664.1469.0527.21678-.0117.05712-.0898.09522-.207.21722a1.30973,1.30973,0,0,1-.0283-.36422" style="fill:#e4002b"/><path d="M17.63355,26.19126c-.1377.2167.209.5068.3438.6459a2.06943,2.06943,0,0,0,.791.5201,10.24654,10.24654,0,0,0,1.7871.41108c.165.02692.3184.05662.4619.08112a.29064.29064,0,0,0,.0098-.0342c.0156-.062.1631-.0762.3662-.168-.0137.0918-.0254.1777-.041.2559.334.0571.6064.09618.7754.11318a2.20947,2.20947,0,0,1,.8779.28182c.0693.039.166.0893.2744.145v-.00682a.18081.18081,0,0,1,.0244.019c.3408.17092.8262.40192,1.1592.57472a6.58588,6.58588,0,0,0,.959.4522c.0488.20308.2412,1.51508.2793,1.97308.041.457.0039.833.043,1.03662a8.82185,8.82185,0,0,0,.1484,1.1822.16543.16543,0,0,0,.2822.0473c.041-.08012.1611-.602.3076-.93312a6.463,6.463,0,0,0,.4942-1.90718c.0566-.669.0713-1.292.082-1.627a1.60215,1.60215,0,0,0-.0498-.3042l.0225-.0214a.619.619,0,0,0-.3614-.3135c-.1699-.05572-.791-.4448-1.0547-.5176-.2587-.0713-.5429-.085-.6113-.1084a.48842.48842,0,0,1-.0801-.0391c.0157.1065.0323.21238.042.31938.0059.04982-.1318.11182-.2998.25492a2.11009,2.11009,0,0,0-.1797-.794,3.15308,3.15308,0,0,0-.6367-.2451,7.9011,7.9011,0,0,1-1.0781-.1709c-.083-.02592-.1865-.0571-.2998-.08892a.396.396,0,0,1-.2061.25982c-.0039-.0977-.0078-.19682-.0146-.3189a7.73254,7.73254,0,0,0-1.0567-.2172,8.65608,8.65608,0,0,1-1.0869-.2286c-.331-.07812-.8242-.18012-.8242-.18012a8.18333,8.18333,0,0,1,1.1504-.43118,6.62467,6.62467,0,0,0,.8066-.271,1.78719,1.78719,0,0,1,.8575-.2632c.1308.0162.539.1402.625-.0185a.55943.55943,0,0,0-.0518-.62012.86965.86965,0,0,0-.8564-.37888,3.036,3.036,0,0,0-.5411.0791,2.81481,2.81481,0,0,1,.2413.3457.21695.21695,0,0,1-.3838.188,3.06105,3.06105,0,0,1-.127-.4517c-.0312.0137-.0596.0259-.0918.0395-.3672.17828-.75.32228-1.1308.4781a9.27368,9.27368,0,0,1-1.668.727.69451.69451,0,0,0-.4805.2281" style="fill:#d6d1c4"/><path d="M49.159,33.09066a1.86979,1.86979,0,0,1,.0645-.2779.68942.68942,0,0,0-.0645.2779" style="fill:#d6d1c4"/><path d="M50.28985,32.09016c-.1035.0591-.2305.13818-.3545.2153.0146.0381.0303.0791.0459.1138a.05069.05069,0,0,1,.0224.0122c.0538.061.1104.1201.1631.1777l-.0117.01218c-.0537-.05608-.1055-.12008-.1641-.17618-.0029-.0079-.0029-.021-.0097-.0259a1.19718,1.19718,0,0,1-.1172-.0738c-.1777.11088-.3399.2061-.4063.2398a.441.441,0,0,0-.2246.1973.486.486,0,0,1,.125.728.39947.39947,0,0,1-.2011-.3574c0,.0273-.0059.0449-.0059.0664.042.4609.2559,3.0019.3525,4.207.0957,1.2046.1338,3.251.0957,4.3936-.0361,1.1381.0284,2.6494.0127,3.03018.2461.24222,1.795,1.334,2.4727,1.77492.3574.231,1.1055.7183,1.8144,1.17a.7208.7208,0,0,1,.2413-.9707c.1279.437-.0596.6489-.2364.979.6377.4077,1.2373.7846,1.4737.9277.0859.0488.2353.1289.4267.22408-.0039-.04928-.0058-.09328-.0088-.14308a.62634.62634,0,0,1,.2774.274c.3828.188.8554.4092,1.3027.62008a1.20955,1.20955,0,0,0,.1484-.26028c.2471-.03272.4336-.0576.6739-.0898a6.23924,6.23924,0,0,1,.1386.7783l-.0048.00878c.2881.13282.4795.21782.5029.229.0908.03522.4355.17192.6103.02882.1729-.1431.9756-.7187,1.0733-.834.0996-.11282.3476-.6347.2383-.8857-.1075-.25-.0117-.332-.3721-.4902-.3555-.15392-2.333-.9458-3.1367-1.233-.044-.0131-.0869-.0288-.1299-.042a.70514.70514,0,0,1-.0859.045.188.188,0,0,1,.0019-.0747h.0039c-.4551-.16022-.9277-.333-1.331-.4981a.80355.80355,0,0,1,.1074.21188.86988.86988,0,0,1-.0537.21782c-.0449.002-.0899,0-.1367,0,.0058-.1157.0107-.23882.0214-.4526-.2431-.0943-.4609-.1914-.6279-.273-.4912-.2334-.7978-.2173-1.0185-.3491a9.23518,9.23518,0,0,1,1.416-.8462c.0781-.2988.1465-.5698.2148-.834.0586,0,.1211.0039.1807.0078.0556.2012.1123.3882.1513.52928-.0292.03622-.0576.06692-.0908.10312.8008-.30812,2.4991-1.0723,2.75-1.1192a1.567,1.567,0,0,1,.7862.14208c.0781.02592.2695.10012.5195.19782a.367.367,0,0,1,.0185-.0977c.084-.2339.1788-.46.293-.72412.2412.25972.4111.50682.2022.83892a.85451.85451,0,0,0-.0762.16108,20.82615,20.82615,0,0,1,2.2685,1.041c.2168.14892.5459.35892.8653.564.0263-.03708.0537-.06788.081-.107.1758.06992.336.13672.5127.208.1221-.081.2461-.166.3965-.26308.1475.267.2822.5092.4238.7573.1241-.0713.2188-.1314.3194-.1914a12.22345,12.22345,0,0,1,1.3301-1.96582c.3164-.24218.2509-.461.1523-.60208-.0996-.1421-.5117-.165-.834-.4531-.2461-.21782-1.209-1.4566-1.834-2.2281-.0234,0-.0527-.0039-.0761-.0039-.0098-.0419-.0215-.08782-.0332-.13182-.1387-.167-.2549-.30908-.3301-.395-.4219-.46-1.043-1.11278-1.2813-1.30418a1.06708,1.06708,0,0,0-1.1543-.09082c-.4492.23782-3.7304,1.94582-4.3242,2.26512-.1601.08888-.4453.2398-.7695.419.082.19088.0644.226-.0801.664-.2402-.2212-.2988-.2803-.2285-.49612-.4395.23592-.9063.48982-1.2695.68122a1.14857,1.14857,0,0,1-.0489.3716c-.0537.0791-.1504-.0469-.1113-.1836.0078-.0391.0449-.0733.125-.1714a6.06,6.06,0,0,1-.5684.2793c-.1562.039-.332-.05912-.1523-.356a19.32815,19.32815,0,0,1,1.9023-2.4653c.8155-.8609,1.8135-1.395,2.0303-1.7207a13.94909,13.94909,0,0,0,.7959-1.73c.0215-.0552.0537-.12012.086-.18412a.81636.81636,0,0,1-.1368-.563c.0039-.06.1368-.10888.2149-.16208v-.02492h.0078c-.1094-.63618-.1074-.64008.4492-.84418a.45252.45252,0,0,1,.1865.2041c.1534-.2632.2823-.479.3448-.5591.1796-.2349.1484-.2549.0332-.3496a14.632,14.632,0,0,1-1.1739-1.0171c-.0586-.0679-.1367-.1592-.2187-.2544-.0264.0112-.0518.0205-.0762.02928a.98826.98826,0,0,1-.0937-.09178c.0263-.0093.0546-.0264.08-.0371-.3086-.3584-.6933-.769-.873-.687a6.13379,6.13379,0,0,0-1.0117,1.041h.0078a.2477.2477,0,0,1,.1387.1641.36446.36446,0,0,1-.2325.4545.34.34,0,0,1-.1631-.32372c-.2304.27692-.4443.54492-.5888.73782-.1289.1719-.377.5484-.668,1.0064.252.2597.3633.4687.2276.771-.3311-.1763-.3663-.1963-.3038-.6524-.1455.2363-.3027.4893-.4609.7461a.35565.35565,0,0,0,.0176.0562c-.0215.00388-.0449.0161-.0664.02188-.3028.48882-.6016.98492-.8438,1.39992.0742.0049.1504.0049.2364.0083a1.86747,1.86747,0,0,1-.1661.544,2.24678,2.24678,0,0,0-.4336.98778c-.0195.185-.2822.352-.4853.58492-.0264-.10892-.0479-.207-.0752-.3042-.3066.7002-.6436,1.4815-.7305,1.65628.0078-.42578.0098-1.03518.0137-1.63818-.1592.0391-.3086-.0566-.46-.2856-.042-.063-.0712-.126-.1064-.1915a.03512.03512,0,0,0-.0195.0074.76155.76155,0,0,1-.0811.1797c-.0059.0161-.0791-.0147-.1221-.021.0098-.03182.0039-.0699.0205-.0757.0577-.0269.1221-.05712.1827-.083.0019-.0113.0058-.0132.0058-.0249l.0156.0136v.0039a2.182,2.182,0,0,1,.2696-.3686,2.62254,2.62254,0,0,1,.3027-.2544c.0059-.32672.0117-.6025.0235-.76372.0419-.55808-.0538-.82218.1455-1.04288.04-.0542.1455-.1592.2744-.2969a.94337.94337,0,0,1-.0059-.59622,1.0095,1.0095,0,0,0,.5713-.73488c0,.25-.0176.4908,0,.7178a5.2854,5.2854,0,0,0,.7178-.8901,1.15177,1.15177,0,0,0,.084-.40482,1.503,1.503,0,0,1,.0107-.16018c.0059-.143.0078-.29682.0176-.4951a3.88652,3.88652,0,0,0-.0059-1.8115,1.41691,1.41691,0,0,0-1.1767-.895s-.8487.56778-1.0371.686c-.1866.1079-.7872.50978-1.0508.6636m-.7715,2.1294c.0058-.03422.0566-.0513.0947-.07622a1.10259,1.10259,0,0,0,.0557.11082c-.0352.0269-.0694.0523-.1094.0791-.0137-.039-.0498-.08492-.041-.1137m.0752,1.6509a1.4454,1.4454,0,0,1-.0166-.209c0-.01612.0801-.0259.1269-.043a1.139,1.139,0,0,1,.045.1978c.0039.01608-.0821.0322-.1553.0542m9.1445,14.37888c-.1806-.521-.1806-.521.0225-1.189.2597.48192-.042.76812-.0225,1.189m-.0596-2.03808c.0303.0278.0303.0869.0401.1342-.0361.02688-.0752.0596-.1123.08988-.0176-.06588-.0391-.12988-.0547-.19828.042-.00972.1074-.0439.1269-.0258m-.6523-.3101c.0078.07518.0137.1504.0215.2241.0039.0093.0117.01608.0195.0298.0156.0381.0322.084.0488.1284a.93189.93189,0,0,0-.0644-.1162c-.002-.018-.002-.0278-.0039-.042-.0381-.0678-.0762-.1318-.1172-.19092.0293-.01318.0645-.01808.0957-.03318m-1.8076-.248c.167.2641.2666.4253.376.6074.1093-.01322.2343-.0235.4043-.03322.0351.13472.0673.27292.1035.43992-.2608.0742-.4405.125-.6573.1929-.0136-.354-.3447-.6519-.2265-1.207m10.1416-4.0279c.0039.024.0264.0489.0215.063a.99318.99318,0,0,1-.0684.0972.34241.34241,0,0,1-.043-.1172c-.0058-.0132.0567-.02692.0899-.043m-1.0645.2432c.0118-.0064.041.0151.0596.02-.0146.021-.0186.0498-.0322.0557-.0176.01018-.044-.00982-.0606-.02.0117-.0147.0166-.045.0332-.0557m-.8047-.9609a.76369.76369,0,0,1-.3574.896c-.2285-.4351.1074-.5621.3574-.896m-1.4765-.13922.0176.05712-.0469-.0063Zm-1.043,1.35692a.2238.2238,0,0,0,.0215.06008.5532.5532,0,0,0-.0977,0,.133.133,0,0,1,.0157-.06008c.0127-.0088.039,0,.0605,0m-.1182-2.2397a.66229.66229,0,0,1,.0577.0469.88509.88509,0,0,1-.0879.0966c0,.0035-.0352-.0336-.0547-.0488a1.12237,1.12237,0,0,0,.0849-.0947m-1.4384-1.1421c.0176.0347.0566.0786.0498.1186-.003.0391-.044.07228-.0723.1124-.0264-.0313-.081-.0772-.0752-.0962a.48648.48648,0,0,1,.0977-.1348m-2.2852,2.4077c.0195.01118.0488.0181.0547.03218.0039.01082-.0156.03282-.0195.05372-.0215-.00972-.044-.0136-.0518-.02972-.0078-.01318.0098-.03808.0166-.05618m-1.3008-1.1396c.0821-.15922.17-.3174.2637-.4703.0098-.02.0449-.02.1172-.04292.125.23292,0,.44382-.0918.63622a6.589,6.589,0,0,0-.4023.6636c-.0791.2363-.1153.4624-.4278.5771-.0693-.0727-.1494-.165-.2324-.25-.0879-.082-.1846-.165-.291-.2612.7344-.2109.7324-.2109,1.0644-.8525m-2.8964,2.13078a.14267.14267,0,0,1,.0361.02982c-.0205-.0107-.0322-.0127-.0479-.021Zm3.3388-10.251c-.165.11282-.2871.19-.4834.313-.0469-.21728-.0742-.36718-.1074-.52388.2695-.1372.4326-.09812.5908.21088m-.8662.106a2.24861,2.24861,0,0,1-.0059,1.02c-.1621-.41308-.1621-.41308.0059-1.02m-.0566,2.90192a1.32955,1.32955,0,0,0,.6504.8842c-.0196.065-.0196.10788-.0313.10988-.1445.03422-.2939.06592-.4297.09912-.4804-.6172-.5078-.73-.1894-1.0932m-2.5489,5.18108a.71146.71146,0,0,1-.123.188,1.01145,1.01145,0,0,1-.209.09572c.0205-.2676.0205-.2676.332-.28372m-.8838.21192c.0196.042.0342.085.0499.126-.0401.0322-.0762.061-.1153.0942a1.50229,1.50229,0,0,1-.0508-.18012,1.052,1.052,0,0,1,.1162-.04008m.0557,3.7202c.1748.042.3223.065.4619.10888a.68358.68358,0,0,1,.251.14992.32331.32331,0,0,1-.0137.4829.24335.24335,0,0,1-.3906-.0859c-.0957-.23-.2656-.1528-.5273-.1802.0937-.2046.1562-.34272.2187-.4756m-.9961-3.1552c-.2246-.1441-.499-.2471-.5068-.65092a.73655.73655,0,0,1,.5068.65092m-.5683.6342c.0254.0601.0449.1177.0752.1871-.0713.00578-.1329.0297-.1475.0156a.17323.17323,0,0,1-.0254-.1309c.0078-.0351.0606-.0508.0977-.0718m-1.2461-.5083c-.0127.01318-.1055-.0249-.1094-.04682a.453.453,0,0,1,.0498-.13578,1.09173,1.09173,0,0,0,.1221.0537.47272.47272,0,0,1-.0625.1289m1.1484-8.92282c-.041.16312-.082.31592-.1269.50982-.2149.0044-.4395.00918-.7012.00918-.086-.36178-.4082-.602-.4834-1.13808.292.267.4697.4282.6406.581.3721-.2388.0635-.772.5127-.9888a1.343,1.343,0,0,1,.6582.98288c-.1582.00982-.291.024-.5.044m.4922-1.03908c-.1123-.187-.2285-.375-.3691-.6152-.1641.0615-.3223.1201-.4786.17528-.3037-.47118-.3037-.47118.2998-.91508.462.3218.4639.856.5479,1.355" style="fill:#d6d1c4"/><path d="M41.55935,37.68334c-.0918-.01408-.1738-.02488-.2432-.04a.20559.20559,0,0,0,.2432.04" style="fill:#d6d1c4"/><path d="M32.82205,49.79176a.923.923,0,0,1-.0576-.7343l-.0137-.0069-.0039-.0029c-.1025.0278-.2402.0962-.2676.0688-.2226-.2558-.4492.0352-.7676-.0498-.0332-.0532-.1074-.1879-.1738-.3042a.70716.70716,0,0,0-.4717.3731c.0254.04.0538.083.0811.1191a30.77712,30.77712,0,0,0,2.9727,3.5889c.1152.0903.2558.1934.4062.3013a1.39335,1.39335,0,0,0,.3936-.7222c.2773-.1021.2548.1553.3505.2402.3497.3086.4825.3228.9024.0327a1.49357,1.49357,0,0,0,.1953-.1479c.0566.0771.1328.1318.1406.1992a2.53612,2.53612,0,0,1-.0097.396c-.2247.0191-.4043.0357-.5899.0459-.1094.229-.2109.4497-.3076.667a.4005.4005,0,0,0,.1826-.0151c.0625-.023.4824-.189.9912-.3999.001-.0342-.0029-.0611.001-.0962.0527.0161.0938.0283.1387.041.5644-.2319,1.1982-.501,1.5605-.6768.1572-.0752.3184-.1611.4766-.2451a.38794.38794,0,0,1-.0547-.1211c-.0059-.0307.0449-.0771.0664-.1167.0508.0396.1064.0816.1709.1416.4951-.2729.9316-.5327,1.0928-.6225.1015-.0591.3242-.1802.5468-.3062a.75578.75578,0,0,1,.0938-.6963c.082.1924.1562.356.2217.5152.1689-.1011.3076-.1861.3486-.2207a2.23775,2.23775,0,0,0,.3574-.4151c.0186-.0273.0489-.062.0743-.0952a.97972.97972,0,0,1-.3086-.313.5215.5215,0,0,1,.166-.646.46247.46247,0,0,0-.3282.1353,4.93372,4.93372,0,0,1-.8242.7729,3.16355,3.16355,0,0,1-.7578.2608c-.1562.0449-.5195.2558-.8105.396-.2979.1401-1.3555.518-1.6182.6669-.0664.0372-.1572.086-.2646.1373.1367.1308.1142.2827-.0596.4799-.2139-.0991-.2783-.2148-.2471-.3388-.2246.0986-.4375.1875-.5156.2207a.42134.42134,0,0,1-.3662-.0039c-.0928-.044-.1153-.086-.0772-.1612.0371-.0791.0235-.1538-.0937-.2607-.1211-.104-.5567-.6191-.8555-.8921-.289-.271-.914-.876-1.1875-1.1069-.2715-.2344-.2646-.2823-.4199-.3911a1.0612,1.0612,0,0,0-.1065-.0542c.0362.1289-.0791.2324-.373.3632m7.2744,1.6729-.0303.063-.0185-.063Z" style="fill:#d6d1c4"/><path d="M29.97345,43.66876c-.0039.0522-.0039.1064-.0039.1611.0185.312-.0176.3213-.3907.7061-.0888.1889-.1582.3442-.1992.4321-.1347.2778-.4199.7119-.3281.8779.0449.0791.3496.5982.7305,1.231.0537-.0752.0957-.1318.1435-.1421.2842-.04.3604.1221.2744.4893-.0957-.0362-.1816-.0669-.2675-.0992.1162.1939.2382.3882.3535.5821a1.10692,1.10692,0,0,1,.1718-.2403,1.47463,1.47463,0,0,0,.584-.9428c.0137-.0552.0196-.1138.0332-.168-.0273-.041-.0508-.082-.0703-.1118-.1719-.2891-.3281-.605-.4199-.773a.63388.63388,0,0,1,.0361-.5332c.0772-.1621.3907-.83.4815-1.1108a5.89708,5.89708,0,0,1,.2842-.772c.1044-.2402.3271-.602.5185-.9302-.0234.0171-.0488.0323-.0703.045.0254-.0191.0527-.0498.0859-.0762.0528-.0957.1114-.1919.1563-.2759.2051-.3818.6347-.9707.7832-1.2808a6.21643,6.21643,0,0,0,.3613-.873c.0606-.2241.084-.2881.1328-.3032.0498-.0171.2481-.0269.1953-.2158-.0527-.1968-.2109-.8121-.3076-1.0791-.0986-.2701-.2031-.794-.2705-.96-.0703-.1641-.1094-.3189-.2334-.3208,0,0-.3418.0019-.3935.2041a9.14307,9.14307,0,0,1-.3086,1.4097c-.2393.7382-1.3692,3.6259-1.7285,4.3618-.1094.2222-.2247.4634-.334.708m-.4834,2.0942a.90327.90327,0,0,1-.1358-.2168c-.0078-.0283.086-.0874.1338-.1274.042.0503.084.1113.1397.1811-.0528.0611-.0909.1099-.1377.1631m3.4697-6.0112a.34785.34785,0,0,0,.0283.0483.21638.21638,0,0,0-.04.042.67771.67771,0,0,1,.0117-.0903m-1.209.8701c.0059-.0317.0606-.0469.0938-.0757.0195.0659.0429.1319.0683.1968-.0605.0142-.1318.0293-.1377.0181a.1866.1866,0,0,1-.0244-.1392m-.4785.2173a.41686.41686,0,0,1,.0625.0078c-.002.041-.002.084-.0039.127a.26191.26191,0,0,1-.0645-.0039c0-.045.0039-.087.0059-.1309M30.533,42.743c.1036.0459.2051.0899.3106.1348-.0342.0522-.0684.1054-.0996.1562-.0899-.061-.1768-.1328-.2627-.2031.0195-.0298.0332-.0576.0517-.0879" style="fill:#d6d1c4"/><path d="M35.12085,25.27906c-.0478-.2309.126-.34272.044-.5449-.084-.2031-.5313-.375-.7403-.4302a1.51913,1.51913,0,0,0-.3105-.04.16342.16342,0,0,1,.0351.0332.72916.72916,0,0,1-.0781.0869c-.0029.0049-.039-.03172-.0566-.041.0254-.0278.0498-.0532.0722-.0791a.582.582,0,0,1-.1777-.0459,7.8401,7.8401,0,0,0-.7832-.145c-.1523-.0518-.4648-.189-.5469-.1192-.0761.0743-.0351.1192.0938.3101a6.731,6.731,0,0,1,2.1348,1.9399,11.4823,11.4823,0,0,1,.7099,1.795l.0127-.02252c.1768.13572.2988.22362.4209.31892-.0635.1518-.1182.2939-.1768.4379.0782.2168.1612.4361.2569.6441.4697,1.0098,1.5762,2.8047,1.9717,3.8418.0644.1821.1367.3598.205.541.0186-.0391.0391-.0801.0586-.1191.0498.039.1114.0712.1075.0961a.93235.93235,0,0,1-.0577.2022.25963.25963,0,0,0-.0498-.0303c.3164.8003.6231,1.5489.7286,1.9473.1484.5547.2167.9018.373,1.41308.1484.5.3906,2.12162.8105,2.24852a9.7112,9.7112,0,0,0,1.3243.1113c.4228.0601.6621.4331,1.416.2881.75-.1494.7832-.5351,1.6533-.5263a14.63641,14.63641,0,0,0,1.9336-.1831.08992.08992,0,0,1,.0537-.0386,1.11141,1.11141,0,0,1,.3086-.0044,3.61881,3.61881,0,0,1,.4668-.0288c.248.0122.541.0122.7832.0151-.0059-.04882-.0137-.0991-.0195-.1431l-.0235-.0761a.43956.43956,0,0,1-.0019-.0459c-.0117-.0308-.0156-.0401-.0117-.0362-.0039-.0039,0,.0054.0117.0362v0a.1061.1061,0,0,1,.0176.0361c.0019.0298.0058.05518.0078.0859.0175.044.0361.09428.0527.1431h.4268a.511.511,0,0,0,.4443-.3223c.0234-.1337-.0352-.1308.0019-.3129a.40135.40135,0,0,0-.3125-.44c-.1826-.0088-1.6084-.13962-2.2636-.185-.6524-.0469-2.6299-.0127-3.2071-.0611-.3398-.0229-.8916-.0586-1.3632-.1089.0293.1573-.0293.271-.2237.6202-.2881-.1539-.3115-.4302-.3437-.6983-.0381-.0088-.0615-.0156-.0918-.022-.0361,0-.0674-.0039-.0996-.0039a.024.024,0,0,1-.0098.0103c-.0059.1157-.0127.2329-.0195.3877-.3291-.228-.1143-.2988.0195-.3877v-.02h.0566l-.0468-.0132c-.3291-.1231-.5655-.0562-.7989-.5239-.1181-.23-.4541-.8453-.8115-1.67482-.372-.85108-.6523-1.94238-.7851-2.27638-.2578-.6699-.9707-1.9868-1.1758-2.5259-.1992-.5449-.627-1.959-.7539-2.1909-.1289-.2329-.6631-1.2632-.9258-1.7774-.2666-.5156-.6934-1.1137-.7471-1.3457m-.3642-.2509-.0215-.0581h.0478Zm9.4384,13.5571a.40329.40329,0,0,1,.1983.5449,2.23174,2.23174,0,0,0-.4082.1577c-.1035.0562-.084.3184-.3682.1714.2012-.3081.3838-.5791.5781-.874m-1.0214.416c.0341.0459.081.0816.081.1118a.85133.85133,0,0,1-.0596.1958c-.0459-.0356-.1318-.0776-.1318-.1128.0039-.06.0625-.1162.1104-.1948m-6.6114-10.6782a.7793.7793,0,0,1-.124.999c-.2519-.5151-.2519-.5381.124-.999" style="fill:#d6d1c4"/><path d="M31.91675,48.33476a10.21981,10.21981,0,0,1,.8242.7129.09863.09863,0,0,0,.0235-.0098v.0201c.0459.0249.0957.0478.1406.0737a.22217.22217,0,0,0-.0176-.167c-.0654-.0928-.5742-.7568-.8125-1.064-.1328-.1709-.3984-.5151-.6367-.8369-.0058.0371-.0117.0689-.0195.105a1.12979,1.12979,0,0,0,.498,1.166" style="fill:#d6d1c4"/><path d="M58.64525,35.55934c.0039.002.0039.00392.0059.01222a.0401.0401,0,0,1-.0156.0127c.0078.1362.0469.272.0674.416.0654-.1347.1337-.271.206-.4077-.0859-.0083-.1738-.0293-.2637-.03322" style="fill:#d6d1c4"/><path d="M42.33185,49.35426l-.0069.002-.0234-.0386.0322.0288-.0019.0078c.1162-.021.2314-.0366.3535-.0547a.98638.98638,0,0,1,.0263.147c.1446-.2163.2872-.4389.4297-.65622a5.13674,5.13674,0,0,0,.4756-.81788c.1055-.2529.0576-.249.1436-.4893a4.32814,4.32814,0,0,0,.1875-.4726c.0176-.085-.0469-.18122-.1992-.1499-.1495.03268-.2344.2656-.3301.46968a9.44951,9.44951,0,0,1-.5987.92342c-.1787.2294-.8154,1.1137-.9619,1.26658a.18192.18192,0,0,1-.1201.04732c.1104.0459.2256.0928.3965.167.0654-.123.1309-.2524.1973-.3804m.7509-.9228a.583.583,0,0,1,.1241.0322c-.0118.09668-.0313.1856-.0498.2739-.0528-.0141-.1036-.0258-.1582-.041.0273-.0884.0546-.17622.0839-.2651" style="fill:#d6d1c4"/><path d="M35.56715,65.53006a2.01588,2.01588,0,0,0,.2617.271,4.14518,4.14518,0,0,0,1.1973.292c.2578.0127,1.2676.125,1.4619.0889a.39735.39735,0,0,0,.3115-.2251c.0704-.107.4541-.0581.3975-.5401-.0605-.4799.0088-.9716-.0986-1.6621-.1035-.6289-.2989-1.4926-.3604-2.0527a.521.521,0,0,1-.0615-.0762.17364.17364,0,0,1,.0527-.0097c0-.0181-.0058-.043-.0058-.0621-.0391-.54-.0684-.623-.3145-.7773-.248-.1538-.2851-.313-.6562-.2407a.9028.9028,0,0,0-.377.2241c-.1016.1416-.2021.5498-.3828.9399-.1729.3868-.7168,1.5547-.9297,1.9659a.64984.64984,0,0,0,.3047-.1831c.0371.0332.0771.0712.1172.1103-.0684.335-.1358.6807-.2344,1.1587-.2353-.1621-.3574-.2432-.4785-.3291a.72927.72927,0,0,0-.0654-.0449c-.0616.122-.1221.2441-.1856.3642-.1748.315-.251.5108.0459.7881m3.3418-.52c.2637.397.2637.397.1494.7236-.3408-.25-.3408-.25-.1494-.7236m-.5127-1.8262c.0235.044.0469.0801.0694.1231a1.03485,1.03485,0,0,1-.0762.1176,1.612,1.612,0,0,1-.086-.1557c-.0039-.0142.0625-.0508.0928-.085m-.0732,2.2407c.0508.0435.1025.0801.1582.1285-.044.0527-.0723.0796-.0957.1079-.0332-.0362-.0821-.0694-.0957-.1079-.0098-.0362.0234-.085.0332-.1285m-.9688-4.0976c.1719.2671.1719.2671-.0752.6411.0284-.272.0479-.4243.0752-.6411m-.3017,2.3799a1.32137,1.32137,0,0,1,.3925.9858.7609.7609,0,0,0,.2823.6069c.2265.1753.2197.4024.0351.6514-.3554-.1499-.7402-.2431-.916-.6592a1.88013,1.88013,0,0,1,.2061-1.5849" style="fill:#d6d1c4"/><path d="M44.51245,63.38846c.126-.1982.2256-.353.333-.5107a.81267.81267,0,0,0-.1464-.1055c-.0469-.0625-.1475-.19092-.2833-.3545a.93759.93759,0,0,0-.122.39158,2.00445,2.00445,0,0,0,.2187.57912" style="fill:#d6d1c4"/><path d="M57.23805,50.07456c-.0146-.09922-.1025-.1729-.25-.2007a4.32571,4.32571,0,0,1-.7754-.3682.58133.58133,0,0,0-.0967-.0249,3.8025,3.8025,0,0,0-.0771.4868c-.0654.00778-.126.02-.1846.0249-.0078-.1777-.0166-.353-.0283-.5327a1.16465,1.16465,0,0,0-.374.2129c-.2969.231-1.7998,1.1411-2.7852,1.7822-.334.2188-.8535.585-1.4355,1.001a.27438.27438,0,0,1,.039-.0063c-.2402.5239-.2402.5219-.5449.497-.0527-.0049-.1094-.0049-.166-.0088-.958.6851-1.9717,1.3907-2.6162,1.7608-1.208.69578-3.0342,1.9062-3.4053,2.0932a4.26659,4.26659,0,0,0-.8135.4278,3.1714,3.1714,0,0,1-.5791.4599c.0459.00388.0879.00388.1358.00388-.0156.06942-.0205.167-.0615.19052-.1817.1157-.2403-.0254-.3086-.1402-.128,0-.2793-.0019-.3106.065-.0488.1001-.0322.26068-.1162.2998a14.27076,14.27076,0,0,0-1.6767.2431c-.4668-.4677-1.4063-1.5898-1.6211-1.8188a.35416.35416,0,0,0-.3887-.1543v.0073c.0781.1328.209.2647.209.39158a1.56731,1.56731,0,0,0,.2148.82332c.0322.06-.0732.1909-.167.3989-.1474-.376-.2549-.6328-.3476-.874a1.38812,1.38812,0,0,1-.1778-.0181c.1211.4741.3799,1.335.419,1.46188-.2598-.03168-1.3594.03712-1.6856.02352a16.36893,16.36893,0,0,1-1.7773-.2061c-.1367-.02642-.3203-.0581-.5332-.0942-.0049.0849-.0069.1753-.0098.2592a.83633.83633,0,0,1-.0859-.0053c.0019-.085.0058-.1778.0117-.27012-.3662-.06978-.8135-.15178-1.2715-.247a1.29668,1.29668,0,0,1-.1221.13232c-.0107-.0532-.0175-.106-.0273-.1621-.2256-.042-.4521-.0889-.6709-.13922a1.3075,1.3075,0,0,0,.1035.15632c-.0801.05268-.1562.09468-.2324.145-.0059-.085-.0098-.1782-.0195-.334a12.54875,12.54875,0,0,1-1.3828-.3579c-.5704-.2012-1.5127-.4331-2.2911-.689.0411.0767.086.1597.1387.2579-.2041.1508-.3857.2832-.6269.457-.2442-.6118-.2706-.688.1796-.8198-.167-.0611-.3222-.1182-.4599-.1802-.7803-.3462-3.2725-1.2388-3.8076-1.4028a.67809.67809,0,0,1-.1397.10148c.0069-.04688.0088-.09278.0166-.13668a1.03318,1.03318,0,0,1-.541-.293.36706.36706,0,0,1-.0742.086c-.2715.0229-.2793-.15532-.2578-.3091a1.49874,1.49874,0,0,1,.0605-.2398,3.75,3.75,0,0,1-.1465-.4941c-.1406-.65332-.33-1.7578-.4912-2.6929-.0361.0181-.0771.03658-.1211.05758a.57881.57881,0,0,1,.0166-.68258c-.0586-.3579-.1074-.6611-.1396-.8603a3.78774,3.78774,0,0,0-.3203-1.4116,23.46451,23.46451,0,0,0,.6679-3.4244c.1661-1.3686.628-2.894.6338-3.84912,0-.07178-.0078-.15278-.0117-.23188-.2734.2202-.542.43888-.8262.6343a1.528,1.528,0,0,1-.4765.1079c-.0117-.045-.0235-.086-.0323-.1299-.1367,1.039-.3584,1.2827-.3662,1.855a20.97922,20.97922,0,0,1-.33,3.0678c-.0391.2183-.0694.4703-.0997.73778.0127.00742.0206.01032.0206.01612a3.39023,3.39023,0,0,1-.0518.3663h-.0059a16.96931,16.96931,0,0,0,.1094,3.7939c.2539,1.4941.543,5.19868.8535,5.4771.3125.2768.4024.0791.6797.2578a5.59959,5.59959,0,0,0,1.7432.873,12.92722,12.92722,0,0,1,2.916.25978,15.53,15.53,0,0,0,1.7725.34622.70961.70961,0,0,1,.0087-.1851l-.0087-.0019-.0274-.045.043.0342-.0069.0127c.1338.0962.1983.145.2217.2241.1377.02.2725.042.4141.0689a1.19049,1.19049,0,0,1,.249-.478c.0947.1162.1885.2241.3135.3774-.0781.0596-.1426.1118-.207.1636.455.082.9228.184,1.3925.312.7832.2231,1.4043.4253,1.9629.5942-.082-.04932-.1797-.0991-.209-.17532a.34767.34767,0,0,1,.1641-.48778.47685.47685,0,0,1,.1162.6861,10.57727,10.57727,0,0,0,1.5322.3672,19.921,19.921,0,0,0,4.2383.0776c.3828.9712,1.2862,2.9272,1.5567,3.689.0234.0791.0449.1391.0683.20988h.0098l-.0098.01222c.2149.6402.3067,1.1021.3838,1.3003.0908.23048.1299.31248.2471.3389.123.0259.1758.168.3545.3208.1767.1509.4267-.042.5761-.1997a5.60168,5.60168,0,0,1,1.0508-.7412c.5-.2788,1.0655-.6582,1.2119-.7349a.3577.3577,0,0,0,.1836-.4741,2.61152,2.61152,0,0,1-.1152-.2832,3.88681,3.88681,0,0,1-.3398.6172,4.29152,4.29152,0,0,0-.5411.1401,5.42814,5.42814,0,0,0-.5293.3208c-.0683-.4019-.1289-.748-.1992-1.144.1563-.0191.2959-.0391.4834-.065-.0459-.1821-.0908-.3501-.1386-.5307-.1485.0268-.2696.0507-.46.0859-.0449-.189-.0859-.375-.1533-.645a3.49633,3.49633,0,0,0,.5927-.0039,1.5205,1.5205,0,0,0,.252-.0762c-.7217-.8809-1.8672-2.2319-2.1885-2.4971.5264.0069.8037.1861,1.0967-.0249.2939-.208,2.3945-1.7138,3.2383-2.3271.6094-.4468,1.8203-1.3999,3.1357-2.314a2.30964,2.30964,0,0,1-.1904-.376c-.1387-.3589-.0332-.5278.4092-.729.1494.3863.209.5381.4111.6773.29-.1963.5742-.3804.8574-.5503,1.0469-.6431,2.3985-1.4068,3.4395-1.9907-.2529-.1001-.6055-.1021-.374-.5894a1.0139,1.0139,0,0,1,1.0214.23c.1553-.086.2959-.1597.42-.23a.23568.23568,0,0,1,.0732-.2217c.0293.044.0586.0869.0879.1348.1514-.083.2705-.148.3379-.1841a6.62883,6.62883,0,0,0,1.2773-.77.30837.30837,0,0,0,.0723-.1358c0-.0258-.0049-.0512-.0049-.0751m-35.8027-1.3038c-.1944-.27-.0674-.521-.0401-.83642.3946.51712.3946.51712.0401.83642m.2744,2.0547c-.1973-.2129-.1563-.3847-.0576-.623.2187.2041.1943.376.0576.623m.7539-6.937c.0264.065.0586.126.082.1953,0,.0098-.0488.0479-.0537.0479-.0556-.044-.1045-.0928-.1611-.1431.0586-.0469.0957-.0698.1328-.1001m-.5312,3.4971c.1416.04.2832.084.4667.1362-.0371.147-.0605.26558-.1152.499-.1914-.227-.3135-.374-.4375-.518.0313-.041.0586-.0791.086-.1172m.2128,5.88378c.0176-.18648.0372-.37358.0606-.61768.2305.28168.2305.28168-.0606.61768m3.7247,4.081a1.218,1.218,0,0,1-.4493-.85348c.3887.1319.5537.4336.8604.6738-.1533.0679-.252.1109-.4111.17968m.789.22712a.53819.53819,0,0,0-.0683-.0029c.0107-.0391.0224-.0728.0302-.108.0244.0122.0518.0191.0576.0401.0079.02-.0117.0478-.0195.0708m14.1445,2.04a.5315.5315,0,0,1,.1739-.2217c.0166-.0161.1113.0757.2129.149a1.58457,1.58457,0,0,1-.2452.2031c-.0253.0107-.1494-.1152-.1416-.1304m.5782,3.48388c-.1055-.05268-.209-.10248-.3145-.14988-.0137-.0098-.0137-.043-.0195-.0737.0293-.0303.0615-.105.0791-.0982a1.374,1.374,0,0,1,.3115.1353c.0137.0078-.0342.1167-.0566.18648m.8945-1.13378c.2363.13478.584.1109.6367.501-.209.42478-.7158.0239-.9512.416-.2197-.2978-.5488-.4341-.4843-.873.2558-.0459.5-.211.7988-.044" style="fill:#d6d1c4"/><path d="M22.83475,40.08966a.71424.71424,0,0,1,.6728.2593c-.083-.8902-.3076-1.9771-.3105-2.8789-.0088-.7622-.0518-2.0669-.0938-3.2222a.35327.35327,0,0,1-.1962.1099c0,.0019,0,.0043.0058.0161a.02076.02076,0,0,1-.0127.0058,7.54234,7.54234,0,0,1,.2129.7344.37129.37129,0,0,1-.2627.457c-.0781-.4243-.2822-.8125.0498-1.1914a.07514.07514,0,0,0-.0039-.02l.0088-.0019c-.0527-.1397-.1035-.2749-.1543-.4039.125-.101.2305-.187.335-.27-.0137-.3349-.0244-.6509-.0342-.916-.042-1.2612-.2266-1.6558-.1514-1.9961.0811-.3408.46-.665.3311-.936-.1299-.273-.5381-1.105-.8867-1.0166,0,0-.2305.1719-.1993.334a8.37989,8.37989,0,0,1-.0175,1.2607c-.0332.2617-.0508,2.353,0,3.0039.0488.6524.1328,2.3032.1132,3.6211-.0058.417,0,.8799.0088,1.356.0557.0371.1084.0732.1612.1079a1.55809,1.55809,0,0,1-.1524.3833c.0137.7597.0166,1.5107-.0332,2.1137.1172.0059.2246.0132.3516.0171.082-.2871.166-.5839.2578-.9272m.1055-1.458a.226.226,0,0,1,.1728.1054c.0342.2378-.0098.4419-.291.5069a1.05148,1.05148,0,0,1-.0791-.1802c-.043-.1929-.0332-.3721.1973-.4321m-.6797-5.8438a2.52894,2.52894,0,0,1-.1504-.4658.872.872,0,0,1,.0644-.292c.376.2656.376.2656.086.7578" style="fill:#d6d1c4"/><path d="M31.27615,48.10816c.0352-.059-.0381-.17382-.0889-.396a2.77965,2.77965,0,0,1-.417.5479.59335.59335,0,0,1-.2109.085c.0811.1294.1582.2544.2344.374a1.32545,1.32545,0,0,0,.4824-.6109" style="fill:#d6d1c4"/><text transform="translate(251.33654 26.69601)" style="font-size:10.005080223083496px;fill:#e4002b;font-family:ArialMT, Arial">®</text></g></g></svg>